# xmcd
#
# Track frame offsets: 
#        150
#        17072
#        29361
#        61866
#        90750
#        105427
#        122786
#        150598
#        192765
#        218911
#        235594
#        261496
#        286117
#
# Disc length: 4117 seconds
#
# Revision: 0
# Processed by: cddbd v1.5.2PL0 Copyright (c) Steve Scherf et al.
# Submitted via: ExactAudioCopy v1.0b1
#
DISCID=a010130d
DTITLE=Deadman - Live At The Saxon Pub
DYEAR=2011
DGENRE=Country
TTITLE0=Brother John
TTITLE1=Don't Do This To Me
TTITLE2=If I Lay Down In The River
TTITLE3=Love Will Guide You Home
TTITLE4=Oh Delilah
TTITLE5=Adios Mi Corazon
TTITLE6=The Ballad Of The Gold Thief
TTITLE7=Ain't No Music
TTITLE8=Take Up Your Mat And Walk
TTITLE9=Absalom! Absalom!
TTITLE10=When The Music's Not Forgotten
TTITLE11=Mankind
TTITLE12=Rough God Goes Riding
EXTD=
EXTT0=
EXTT1=
EXTT2=
EXTT3=
EXTT4=
EXTT5=
EXTT6=
EXTT7=
EXTT8=
EXTT9=
EXTT10=
EXTT11=
EXTT12=
PLAYORDER=
